<?xml version="1.0" encoding="UTF-8" standalone="no"?>
<!-- Created with Inkscape (http://www.inkscape.org/) -->

<svg
   xmlns:dc="http://purl.org/dc/elements/1.1/"
   xmlns:cc="http://creativecommons.org/ns#"
   xmlns:rdf="http://www.w3.org/1999/02/22-rdf-syntax-ns#"
   xmlns:svg="http://www.w3.org/2000/svg"
   xmlns="http://www.w3.org/2000/svg"
   xmlns:sodipodi="http://sodipodi.sourceforge.net/DTD/sodipodi-0.dtd"
   xmlns:inkscape="http://www.inkscape.org/namespaces/inkscape"
   width="106.05589mm"
   height="109.13584mm"
   viewBox="0 0 106.05588 109.13584"
   version="1.1"
   id="svg8"
   sodipodi:docname="Ship.svg"
   inkscape:export-filename="C:\projects\unity\Spaces\Spaces\Assets\Ship.png"
   inkscape:export-xdpi="96"
   inkscape:export-ydpi="96"
   inkscape:version="0.92.1 r15371">
  <defs
     id="defs2">
    <filter
       inkscape:collect="always"
       style="color-interpolation-filters:sRGB"
       id="filter4618"
       x="-0.61712003"
       width="2.2342401"
       y="-0.21527441"
       height="1.4305488">
      <feGaussianBlur
         inkscape:collect="always"
         stdDeviation="2.9157083"
         id="feGaussianBlur4620" />
    </filter>
    <filter
       inkscape:collect="always"
       style="color-interpolation-filters:sRGB"
       id="filter4764"
       x="-0.16470075"
       width="1.3294015"
       y="-0.39691249"
       height="1.793825">
      <feGaussianBlur
         inkscape:collect="always"
         stdDeviation="2.6574631"
         id="feGaussianBlur4766" />
    </filter>
    <filter
       inkscape:collect="always"
       style="color-interpolation-filters:sRGB"
       id="filter4894"
       x="-0.045145068"
       width="1.0902901"
       y="-0.043679126"
       height="1.0873582">
      <feGaussianBlur
         inkscape:collect="always"
         stdDeviation="6.5243488"
         id="feGaussianBlur4896" />
    </filter>
  </defs>
  <sodipodi:namedview
     id="base"
     pagecolor="#ffffff"
     bordercolor="#666666"
     borderopacity="1.0"
     inkscape:pageopacity="0.0"
     inkscape:pageshadow="2"
     inkscape:zoom="0.35"
     inkscape:cx="-392.22285"
     inkscape:cy="13.282719"
     inkscape:document-units="mm"
     inkscape:current-layer="layer1"
     showgrid="false"
     fit-margin-top="3"
     fit-margin-left="3"
     fit-margin-right="3"
     fit-margin-bottom="3"
     inkscape:window-width="1920"
     inkscape:window-height="1009"
     inkscape:window-x="-11"
     inkscape:window-y="-11"
     inkscape:window-maximized="1"
     inkscape:snap-text-baseline="false"
     inkscape:snap-page="false" />
  <metadata
     id="metadata5">
    <rdf:RDF>
      <cc:Work
         rdf:about="">
        <dc:format>image/svg+xml</dc:format>
        <dc:type
           rdf:resource="http://purl.org/dc/dcmitype/StillImage" />
        <dc:title></dc:title>
      </cc:Work>
    </rdf:RDF>
  </metadata>
  <g
     inkscape:label="Ebene 1"
     inkscape:groupmode="layer"
     id="layer1"
     transform="translate(-24.022653,-54.551164)">
    <path
       inkscape:connector-curvature="0"
       id="path4900"
       d="M 106.61566,132.95833 103.59184,106.5 95.701659,144.43921"
       style="fill:#c83737;stroke:#000000;stroke-width:0.26458332px;stroke-linecap:butt;stroke-linejoin:miter;stroke-opacity:1" />
    <path
       style="fill:#c83737;stroke:#000000;stroke-width:0.26458332px;stroke-linecap:butt;stroke-linejoin:miter;stroke-opacity:1"
       d="M 49.136905,132.95833 52.160714,106.5 l 7.890193,37.93921"
       id="path4898"
       inkscape:connector-curvature="0" />
    <path
       transform="scale(0.26458333)"
       inkscape:connector-curvature="0"
       id="path4768"
       d="m 127.45384,576.66254 c 20.38595,-24.91831 62.94235,-65.85931 80.40133,-77.34936 12.14338,-7.99176 49.70266,-24.79349 55.42438,-24.79349 3.64703,0 7.39499,-29.51559 9.60374,-75.63048 1.50754,-31.47467 4.1836,-71.36952 5.9468,-88.65524 3.26398,-31.99882 11.97968,-71.95262 16.73296,-76.70591 3.71017,-3.71017 10.71882,22.20909 15.71976,58.13448 2.29686,16.5 5.55777,60.21429 7.24648,97.14286 1.68871,36.92857 4.38924,71.2364 6.00119,76.23963 2.51838,7.81662 5.73701,10.16907 22.87165,16.71658 10.96745,4.1909 27.65326,13.41736 37.07957,20.50325 25.79767,19.39245 88.01499,89.46308 79.33279,89.34645 -2.09798,-0.0286 -42.3554,-10.25811 -89.46098,-22.7332 l -85.64648,-22.68191 -83.80208,22.73317 c -46.09115,12.50323 -85.13424,22.73317 -86.76243,22.73317 -1.62819,0 2.56191,-6.75 9.31132,-15 z"
       style="opacity:1;fill:#008430;fill-opacity:1;stroke:#000000;stroke-width:2.86164212;stroke-miterlimit:4;stroke-dasharray:none;stroke-opacity:1;filter:url(#filter4894)" />
    <path
       style="fill:none;stroke:#000000;stroke-width:0.26458332px;stroke-linecap:butt;stroke-linejoin:miter;stroke-opacity:1"
       d="M 28.72619,157.90476 C 71.815475,103.47619 70.303572,146.56548 71.815475,103.47619 73.327381,60.386904 79.374999,59.630952 79.374999,59.630952"
       id="path4485"
       inkscape:connector-curvature="0" />
    <path
       inkscape:connector-curvature="0"
       id="path4502"
       d="M 125.32429,157.90476 C 84.8135,103.47619 86.234928,146.56548 84.8135,103.47619 83.392068,60.386904 77.706348,59.630952 77.706348,59.630952"
       style="fill:none;stroke:#000000;stroke-width:0.25654468px;stroke-linecap:butt;stroke-linejoin:miter;stroke-opacity:1" />
    <path
       style="fill:none;stroke:#000000;stroke-width:0.26458332px;stroke-linecap:butt;stroke-linejoin:miter;stroke-opacity:1"
       d="m 28.72619,157.90476 c 47.625,-12.85119 47.625,-12.85119 47.625,-12.85119 l 48.9731,12.85119"
       id="path4504"
       inkscape:connector-curvature="0" />
    <path
       style="opacity:1;fill:#008430;fill-opacity:1;stroke:#000000;stroke-width:2.86164212;stroke-miterlimit:4;stroke-dasharray:none;stroke-opacity:1"
       d="m 127.45384,576.66254 c 20.38595,-24.91831 62.94235,-65.85931 80.40133,-77.34936 12.14338,-7.99176 49.70266,-24.79349 55.42438,-24.79349 3.64703,0 7.39499,-29.51559 9.60374,-75.63048 1.50754,-31.47467 4.1836,-71.36952 5.9468,-88.65524 3.26398,-31.99882 11.97968,-71.95262 16.73296,-76.70591 3.71017,-3.71017 10.71882,22.20909 15.71976,58.13448 2.29686,16.5 5.55777,60.21429 7.24648,97.14286 1.68871,36.92857 4.38924,71.2364 6.00119,76.23963 2.51838,7.81662 5.73701,10.16907 22.87165,16.71658 10.96745,4.1909 27.65326,13.41736 37.07957,20.50325 25.79767,19.39245 88.01499,89.46308 79.33279,89.34645 -2.09798,-0.0286 -42.3554,-10.25811 -89.46098,-22.7332 l -85.64648,-22.68191 -83.80208,22.73317 c -46.09115,12.50323 -85.13424,22.73317 -86.76243,22.73317 -1.62819,0 2.56191,-6.75 9.31132,-15 z"
       id="path4506"
       inkscape:connector-curvature="0"
       transform="scale(0.26458333)" />
    <path
       style="fill:#ffff00;stroke:#000000;stroke-width:0.26458332px;stroke-linecap:butt;stroke-linejoin:miter;stroke-opacity:1"
       d="M 74.839284,86.845237 73.327381,119.35119 H 84.666666 L 81.642856,89.113094 Z"
       id="path4508"
       inkscape:connector-curvature="0" />
    <path
       style="fill:#ffff00;stroke:#000000;stroke-width:0.11106073px;stroke-linecap:butt;stroke-linejoin:miter;stroke-opacity:1"
       d="m 60.050907,144.43921 18.036331,-3.3597 20.687913,5.58099 -17.187762,-16.06881 h -4.793614 z"
       id="path4510"
       inkscape:connector-curvature="0" />
    <path
       inkscape:connector-curvature="0"
       id="path4512"
       d="M 74.839284,86.845237 73.327381,119.35119 H 84.666666 L 81.642856,89.113094 Z"
       style="fill:#ffff00;stroke:#000000;stroke-width:0.26458332px;stroke-linecap:butt;stroke-linejoin:miter;stroke-opacity:1;filter:url(#filter4618)" />
    <path
       inkscape:connector-curvature="0"
       id="path4622"
       d="m 60.050907,144.43921 18.036331,-3.3597 20.687913,5.58099 -17.187762,-16.06881 h -4.793614 z"
       style="fill:#ffff00;stroke:#000000;stroke-width:0.11106073px;stroke-linecap:butt;stroke-linejoin:miter;stroke-opacity:1;filter:url(#filter4764)" />
  </g>
</svg>
